<?xml version="1.0" standalone="no"?>
<!DOCTYPE svg PUBLIC "-//W3C//DTD SVG 20010904//EN"
 "http://www.w3.org/TR/2001/REC-SVG-20010904/DTD/svg10.dtd">
<svg version="1.0" xmlns="http://www.w3.org/2000/svg"
 width="986.000000pt" height="986.000000pt" viewBox="0 0 986.000000 986.000000"
 preserveAspectRatio="xMidYMid meet">
<metadata>
Created by potrace 1.14, written by Peter Selinger 2001-2017
</metadata>
<g transform="translate(0.000000,986.000000) scale(0.100000,-0.100000)"
fill="#000000" stroke="none">
<path d="M4545 9850 c-501 -43 -992 -157 -1440 -335 -151 -59 -485 -221 -630
-305 -382 -219 -707 -470 -1031 -794 -414 -415 -699 -815 -955 -1341 -276
-570 -430 -1139 -479 -1779 -13 -166 -13 -566 0 -732 49 -640 203 -1209 479
-1779 256 -526 541 -926 955 -1341 415 -414 814 -699 1341 -955 515 -249 1008
-392 1615 -466 209 -25 851 -25 1060 0 607 74 1100 217 1615 466 247 120 372
191 590 337 633 421 1166 990 1545 1649 89 154 247 483 313 650 177 450 288
939 327 1434 13 173 13 569 0 742 -39 499 -153 995 -335 1454 -59 151 -221
485 -305 630 -317 552 -753 1051 -1265 1450 -133 104 -409 289 -560 376 -146
83 -480 245 -630 304 -396 157 -830 265 -1285 321 -156 19 -762 28 -925 14z
m945 -1484 c30 -10 78 -23 105 -30 91 -24 247 -98 331 -158 185 -133 378 -405
411 -578 3 -19 13 -51 22 -70 14 -30 16 -110 19 -590 3 -465 6 -559 18 -577
l14 -23 498 -1 c273 0 529 -4 567 -8 81 -9 189 -36 225 -55 14 -8 39 -17 57
-20 17 -4 37 -14 44 -22 6 -8 19 -14 29 -14 9 0 29 -9 43 -20 14 -11 28 -20
31 -20 13 0 129 -86 185 -136 64 -58 154 -166 171 -205 6 -13 23 -44 38 -69
64 -104 108 -255 121 -413 14 -165 14 -724 0 -880 -6 -67 -19 -148 -30 -180
-10 -31 -19 -64 -19 -72 0 -8 -4 -23 -9 -33 -5 -9 -30 -59 -56 -111 -52 -106
-156 -241 -242 -317 -64 -56 -152 -120 -186 -134 -12 -6 -29 -14 -37 -20 -8
-5 -26 -14 -40 -20 -14 -5 -32 -14 -40 -19 -31 -17 -118 -43 -215 -63 -92 -20
-139 -22 -615 -25 -464 -4 -516 -6 -527 -20 -10 -13 -13 -130 -13 -503 0 -279
-4 -523 -10 -571 -49 -391 -329 -742 -697 -877 -71 -26 -91 -32 -185 -51 -89
-19 -131 -21 -538 -21 -407 0 -449 2 -538 21 -92 19 -114 25 -187 52 -191 69
-403 237 -520 412 -46 68 -125 227 -125 250 0 9 -6 28 -14 43 -13 26 -29 111
-47 252 -5 36 -8 272 -8 524 1 432 0 460 -17 473 -14 10 -122 13 -529 13 -508
0 -511 0 -615 25 -242 57 -391 138 -551 302 -178 183 -270 369 -303 613 -23
163 -23 817 0 980 14 103 45 228 64 255 4 6 11 21 15 35 13 43 85 162 141 231
80 100 212 221 289 263 17 9 37 20 45 25 17 10 99 47 145 66 17 7 66 23 110
36 78 23 90 23 632 29 303 3 555 9 560 13 4 5 10 250 13 545 5 509 7 542 28
627 20 83 49 170 71 213 5 9 14 28 20 42 66 149 230 325 410 442 39 26 148 78
163 78 7 0 22 7 32 15 11 8 30 15 43 15 13 0 51 10 85 22 99 34 147 36 618 34
392 -2 452 -5 500 -20z"/>
<path d="M4555 7930 c-171 -25 -302 -94 -420 -222 -36 -39 -65 -76 -65 -83 0
-7 -8 -23 -18 -36 -31 -41 -62 -131 -72 -209 -5 -41 -10 -345 -10 -676 0 -678
0 -674 -69 -737 -79 -71 -29 -67 -764 -67 -641 0 -666 -1 -708 -20 -24 -11
-51 -20 -61 -20 -62 -1 -290 -187 -332 -270 -9 -19 -23 -46 -31 -60 -7 -14
-24 -52 -37 -85 -23 -60 -23 -60 -23 -530 0 -428 2 -473 18 -504 9 -19 17 -39
17 -45 0 -27 63 -134 112 -191 57 -66 136 -133 179 -152 15 -6 30 -16 33 -22
4 -6 15 -11 24 -11 9 0 31 -7 47 -16 59 -31 155 -37 795 -43 457 -4 653 -9
671 -18 51 -23 96 -76 113 -135 14 -49 16 -130 16 -656 0 -358 4 -632 10 -679
18 -135 98 -283 203 -379 34 -31 78 -64 97 -75 19 -11 42 -23 50 -28 107 -62
185 -71 620 -71 444 0 506 7 625 72 11 6 29 16 40 22 30 17 117 88 141 116 12
14 33 37 47 52 13 14 34 46 47 70 12 23 28 54 36 68 7 14 14 32 14 41 0 9 8
34 18 55 15 36 17 99 22 714 4 605 7 678 22 705 25 45 80 94 119 105 20 6 271
10 635 10 646 0 714 4 834 53 187 75 338 243 393 437 34 118 39 210 35 586 -5
351 -6 372 -27 429 -52 140 -101 217 -194 302 -59 53 -187 133 -215 133 -10 1
-35 9 -57 20 -38 18 -69 19 -709 20 l-668 0 -42 22 c-54 29 -84 56 -104 93
-15 27 -18 102 -23 705 -5 665 -5 676 -27 740 -45 130 -98 212 -191 295 -19
16 -42 38 -52 47 -33 31 -153 89 -229 111 -70 19 -103 21 -455 23 -209 1 -402
-1 -430 -6z"/>
</g>
</svg>
