<?xml version="1.0" standalone="no"?>
<!DOCTYPE svg PUBLIC "-//W3C//DTD SVG 20010904//EN"
 "http://www.w3.org/TR/2001/REC-SVG-20010904/DTD/svg10.dtd">
<svg version="1.0" xmlns="http://www.w3.org/2000/svg"
 width="512.000000pt" height="512.000000pt" viewBox="0 0 512.000000 512.000000"
 preserveAspectRatio="xMidYMid meet">

<g transform="translate(0.000000,512.000000) scale(0.100000,-0.100000)"
fill="#000000" stroke="none">
<path d="M2105 4930 c-227 -49 -395 -226 -428 -451 -35 -241 116 -488 348
-570 75 -27 213 -36 286 -19 177 41 328 174 391 345 18 48 22 82 23 172 l0
111 81 4 c69 3 88 7 130 33 40 25 56 44 87 104 47 92 50 140 8 182 -35 34 -16
32 -336 33 -249 1 -250 1 -318 28 -75 31 -201 44 -272 28z"/>
<path d="M3730 3761 c-87 -28 -159 -101 -186 -185 l-17 -55 -31 18 c-44 26
-35 25 -541 86 l-459 56 -272 -3 c-257 -3 -274 -4 -301 -24 -66 -48 -63 -14
-63 -806 l0 -718 -160 0 -160 0 0 760 0 759 -31 36 c-18 20 -47 39 -70 45 -25
7 -261 10 -691 8 l-653 -3 -33 -23 c-67 -48 -63 37 -60 -1234 3 -1152 3 -1153
24 -1198 28 -59 77 -108 139 -136 46 -22 63 -24 219 -24 l169 0 -6 -37 c-18
-108 -18 -182 -3 -269 55 -320 297 -564 614 -619 107 -19 148 -19 257 0 375
66 647 407 621 780 -3 49 -9 102 -12 117 l-6 28 420 0 420 0 4 -128 c4 -138
18 -182 76 -246 94 -101 290 -101 384 0 55 59 72 117 72 249 l1 120 119 3 119
3 -6 -38 c-18 -108 -18 -182 -3 -269 55 -320 297 -564 614 -619 107 -19 148
-19 257 0 432 76 707 501 600 928 -9 34 -36 103 -61 153 -41 84 -44 96 -44
170 0 93 -18 168 -97 403 -228 680 -580 1424 -840 1776 -82 111 -124 138 -223
141 -41 2 -86 0 -100 -5z m-916 -527 l68 -7 30 -48 c16 -26 46 -58 66 -71 37
-23 40 -23 439 -26 l402 -3 6 -32 c3 -18 16 -126 30 -241 l25 -209 -53 -71
c-190 -251 -430 -562 -438 -564 -5 -2 -9 37 -9 90 0 113 -24 174 -91 231 -69
60 -110 67 -376 67 l-233 0 0 451 0 451 33 -6 c17 -3 63 -8 101 -12z m-1428
-2035 c106 -40 184 -152 184 -264 0 -103 -73 -215 -168 -258 -66 -30 -171 -29
-233 1 -104 51 -163 144 -163 257 0 86 25 147 84 204 79 77 190 99 296 60z
m3080 0 c106 -40 184 -152 184 -264 0 -103 -73 -215 -168 -258 -66 -30 -171
-29 -233 1 -104 51 -163 144 -163 257 0 86 25 147 84 204 79 77 190 99 296 60z"/>
</g>
</svg>
